G04 #@! TF.FileFunction,Copper,L1,Top,Signal*
%FSLAX46Y46*%
G04 Gerber Fmt 4.6, Leading zero omitted, Abs format (unit mm)*
G04 Created by KiCad (PCBNEW 4.0.7-e2-6376~61~ubuntu18.04.1) date Tue Jun  5 21:58:21 2018*
%MOMM*%
%LPD*%
G01*
G04 APERTURE LIST*
%ADD10C,0.100000*%
%ADD11C,5.000000*%
%ADD12C,2.000000*%
%ADD13R,2.200000X2.200000*%
%ADD14O,2.200000X2.200000*%
%ADD15R,1.700000X1.700000*%
%ADD16O,1.700000X1.700000*%
%ADD17R,2.500000X1.100000*%
%ADD18R,1.100000X2.500000*%
%ADD19C,2.400000*%
%ADD20O,2.400000X2.400000*%
%ADD21C,0.152400*%
%ADD22C,0.812800*%
%ADD23C,0.508000*%
%ADD24C,0.250000*%
%ADD25C,0.254000*%
G04 APERTURE END LIST*
D10*
D11*
X34290000Y7620000D03*
D12*
X17780000Y50220000D03*
X17780000Y45720000D03*
X11280000Y50220000D03*
X11280000Y45720000D03*
D13*
X6350000Y10160000D03*
D14*
X13970000Y10160000D03*
D15*
X6350000Y40640000D03*
D16*
X8890000Y40640000D03*
D15*
X35560000Y43180000D03*
D16*
X35560000Y45720000D03*
X35560000Y48260000D03*
X35560000Y50800000D03*
D15*
X35560000Y27940000D03*
D16*
X35560000Y25400000D03*
D12*
X29210000Y50220000D03*
X29210000Y45720000D03*
X22710000Y50220000D03*
X22710000Y45720000D03*
D17*
X13240000Y30480000D03*
X13240000Y28480000D03*
X13240000Y26480000D03*
X13240000Y24480000D03*
X13240000Y22480000D03*
X13240000Y20480000D03*
X13240000Y18480000D03*
X13240000Y16480000D03*
X28640000Y16480000D03*
X28640000Y18480000D03*
X28640000Y20480000D03*
X28640000Y22480000D03*
X28640000Y24480000D03*
X28640000Y26480000D03*
X28640000Y28480000D03*
X28640000Y30480000D03*
D18*
X15930000Y14780000D03*
X17930000Y14780000D03*
X19930000Y14780000D03*
X21930000Y14780000D03*
X23930000Y14780000D03*
X25930000Y14780000D03*
D15*
X17780000Y6350000D03*
D16*
X20320000Y6350000D03*
D11*
X5080000Y50800000D03*
D19*
X21590000Y10160000D03*
D20*
X29210000Y10160000D03*
D19*
X7620000Y16510000D03*
D20*
X7620000Y24130000D03*
D19*
X6350000Y29210000D03*
D20*
X6350000Y36830000D03*
D19*
X35560000Y39370000D03*
D20*
X35560000Y31750000D03*
D19*
X34290000Y21590000D03*
D20*
X34290000Y13970000D03*
D21*
X26670000Y36830000D02*
X27940000Y36830000D01*
X27940000Y35560000D02*
X26670000Y35560000D01*
X26670000Y36830000D02*
X12700000Y36830000D01*
X12700000Y38100000D02*
X27940000Y38100000D01*
X12700000Y36830000D02*
X12700000Y38100000D01*
X27940000Y38100000D02*
X27940000Y36830000D01*
X27940000Y36830000D02*
X27940000Y35560000D01*
X27940000Y35560000D02*
X27940000Y34290000D01*
X27940000Y34290000D02*
X13970000Y34290000D01*
X13970000Y34290000D02*
X12700000Y35560000D01*
X12700000Y35560000D02*
X12700000Y36830000D01*
X12700000Y35560000D02*
X26670000Y36830000D01*
X26670000Y36830000D02*
X26670000Y35560000D01*
X26670000Y35560000D02*
X13970000Y35560000D01*
X13970000Y35560000D02*
X12700000Y35560000D01*
D22*
X6350000Y29210000D02*
X5080000Y27940000D01*
X5080000Y27940000D02*
X5080000Y19050000D01*
X5080000Y19050000D02*
X7620000Y16510000D01*
D23*
X7620000Y16510000D02*
X7620000Y11430000D01*
X7620000Y11430000D02*
X6350000Y10160000D01*
D22*
X35560000Y27940000D02*
X38100000Y27940000D01*
X38100000Y27940000D02*
X38100000Y3810000D01*
X7620000Y3810000D02*
X7620000Y8890000D01*
X38100000Y3810000D02*
X7620000Y3810000D01*
X7620000Y16510000D02*
X7620000Y8890000D01*
X35560000Y39370000D02*
X38100000Y39370000D01*
X38100000Y39370000D02*
X38100000Y27940000D01*
X35560000Y43180000D02*
X35560000Y39370000D01*
X13940000Y16480000D02*
X7650000Y16480000D01*
D24*
X7650000Y16480000D02*
X7620000Y16510000D01*
D23*
X6350000Y40640000D02*
X6350000Y41910000D01*
D22*
X6350000Y41910000D02*
X10160000Y45720000D01*
D24*
X10160000Y45720000D02*
X11280000Y45720000D01*
X11280000Y45720000D02*
X10160000Y45720000D01*
D22*
X6350000Y41910000D02*
X6350000Y36830000D01*
D24*
X10160000Y45720000D02*
X6350000Y41910000D01*
D22*
X6350000Y36830000D02*
X8890000Y34290000D01*
X11430000Y30480000D02*
X13940000Y30480000D01*
X8890000Y33020000D02*
X11430000Y30480000D01*
X8890000Y34290000D02*
X8890000Y33020000D01*
X11280000Y45720000D02*
X17780000Y45720000D01*
D24*
X13940000Y30480000D02*
X13940000Y30510000D01*
D22*
X35560000Y45720000D02*
X33020000Y44450000D01*
X33020000Y31750000D02*
X29750000Y28480000D01*
X33020000Y44450000D02*
X33020000Y31750000D01*
D24*
X29750000Y28480000D02*
X27940000Y28480000D01*
D22*
X35560000Y48260000D02*
X31750000Y46990000D01*
X31750000Y34290000D02*
X29210000Y30480000D01*
X31750000Y46990000D02*
X31750000Y34290000D01*
D24*
X29210000Y30480000D02*
X27940000Y30480000D01*
D22*
X35560000Y25400000D02*
X35560000Y22860000D01*
X35560000Y22860000D02*
X34290000Y21590000D01*
X13940000Y26480000D02*
X9970000Y26480000D01*
X9970000Y26480000D02*
X7620000Y24130000D01*
X31050000Y18480000D02*
X27940000Y18480000D01*
X31750000Y17780000D02*
X31050000Y18480000D01*
X31750000Y12700000D02*
X31750000Y17780000D01*
X29210000Y10160000D02*
X31750000Y12700000D01*
X27940000Y22480000D02*
X27050000Y22480000D01*
X27050000Y22480000D02*
X25400000Y24130000D01*
X25400000Y24130000D02*
X25400000Y30480000D01*
X25400000Y30480000D02*
X26670000Y31750000D01*
X26670000Y31750000D02*
X29210000Y34290000D01*
D23*
X29210000Y34290000D02*
X29210000Y34290000D01*
D22*
X29210000Y34290000D02*
X29210000Y34290000D01*
X29210000Y45720000D02*
X22710000Y45720000D01*
X29210000Y43180000D02*
X29210000Y45720000D01*
X29210000Y34290000D02*
X29210000Y43180000D01*
D24*
X29210000Y34290000D02*
X29210000Y34290000D01*
D22*
X35560000Y31750000D02*
X34290000Y30480000D01*
X31370000Y22480000D02*
X27940000Y22480000D01*
X31750000Y22860000D02*
X31370000Y22480000D01*
X31750000Y27940000D02*
X31750000Y22860000D01*
X34290000Y30480000D02*
X31750000Y27940000D01*
X27940000Y20480000D02*
X31590000Y20480000D01*
X34290000Y17780000D02*
X34290000Y13970000D01*
X31590000Y20480000D02*
X34290000Y17780000D01*
X13970000Y10160000D02*
X17780000Y6350000D01*
X20320000Y48260000D02*
X20750000Y48260000D01*
X20750000Y48260000D02*
X22710000Y50220000D01*
X11430000Y40640000D02*
X11430000Y41910000D01*
X20320000Y6350000D02*
X20320000Y7620000D01*
X20320000Y7620000D02*
X21590000Y10160000D01*
X21590000Y10160000D02*
X25400000Y10160000D01*
X25400000Y10160000D02*
X27940000Y12700000D01*
X27940000Y12700000D02*
X27940000Y16480000D01*
X17780000Y50220000D02*
X22710000Y50220000D01*
X19050000Y50220000D02*
X19050000Y49530000D01*
X17780000Y41910000D02*
X11430000Y41910000D01*
X20320000Y44450000D02*
X17780000Y41910000D01*
X20320000Y48260000D02*
X20320000Y44450000D01*
X19050000Y49530000D02*
X20320000Y48260000D01*
X11430000Y41910000D02*
X8890000Y40640000D01*
X26035000Y17145000D02*
X27940000Y16480000D01*
X11430000Y40640000D02*
X11430000Y34290000D01*
X11430000Y34290000D02*
X15240000Y31750000D01*
X15240000Y31750000D02*
X16510000Y30480000D01*
X16510000Y30480000D02*
X16510000Y26670000D01*
X16510000Y26670000D02*
X24130000Y19050000D01*
X24130000Y19050000D02*
X25400000Y17780000D01*
X25400000Y17780000D02*
X26035000Y17145000D01*
X8890000Y40640000D02*
X11430000Y40640000D01*
X11280000Y50220000D02*
X19050000Y50220000D01*
D24*
X19050000Y50220000D02*
X22710000Y50220000D01*
D22*
X22710000Y50220000D02*
X29210000Y50220000D01*
X29210000Y50220000D02*
X35560000Y50800000D01*
D24*
X27940000Y16480000D02*
X27970000Y16480000D01*
D25*
G36*
X39243000Y2667000D02*
X38676236Y2667000D01*
X39015986Y2894014D01*
X39243000Y3233764D01*
X39243000Y2667000D01*
X39243000Y2667000D01*
G37*
X39243000Y2667000D02*
X38676236Y2667000D01*
X39015986Y2894014D01*
X39243000Y3233764D01*
X39243000Y2667000D01*
G36*
X39243000Y39946236D02*
X39015986Y40285986D01*
X38595728Y40566794D01*
X38100000Y40665400D01*
X37218577Y40665400D01*
X36855400Y41029210D01*
X36855400Y41560189D01*
X37042017Y41680274D01*
X37245003Y41977353D01*
X37316416Y42330000D01*
X37316416Y44030000D01*
X37254427Y44359444D01*
X37059726Y44662017D01*
X36976455Y44718914D01*
X37200696Y45054514D01*
X37333069Y45720000D01*
X37200696Y46385486D01*
X36823728Y46949659D01*
X36763353Y46990000D01*
X36823728Y47030341D01*
X37200696Y47594514D01*
X37333069Y48260000D01*
X37200696Y48925486D01*
X36823728Y49489659D01*
X36763353Y49530000D01*
X36823728Y49570341D01*
X37200696Y50134514D01*
X37333069Y50800000D01*
X37200696Y51465486D01*
X36823728Y52029659D01*
X36259555Y52406627D01*
X35594069Y52539000D01*
X35525931Y52539000D01*
X34860445Y52406627D01*
X34296272Y52029659D01*
X34264752Y51982486D01*
X30466070Y51635520D01*
X30281430Y51820483D01*
X29587394Y52108672D01*
X28835903Y52109327D01*
X28141365Y51822350D01*
X27833878Y51515400D01*
X24085981Y51515400D01*
X23781430Y51820483D01*
X23087394Y52108672D01*
X22335903Y52109327D01*
X21641365Y51822350D01*
X21333878Y51515400D01*
X19155981Y51515400D01*
X18851430Y51820483D01*
X18157394Y52108672D01*
X17405903Y52109327D01*
X16711365Y51822350D01*
X16403878Y51515400D01*
X12655981Y51515400D01*
X12351430Y51820483D01*
X11657394Y52108672D01*
X10905903Y52109327D01*
X10211365Y51822350D01*
X9679517Y51291430D01*
X9391328Y50597394D01*
X9390673Y49845903D01*
X9677650Y49151365D01*
X10208570Y48619517D01*
X10902606Y48331328D01*
X11654097Y48330673D01*
X12348635Y48617650D01*
X12656122Y48924600D01*
X16404019Y48924600D01*
X16708570Y48619517D01*
X17402606Y48331328D01*
X18154097Y48330673D01*
X18340383Y48407645D01*
X19024600Y47723428D01*
X19024600Y47147010D01*
X18851430Y47320483D01*
X18157394Y47608672D01*
X17405903Y47609327D01*
X16711365Y47322350D01*
X16403878Y47015400D01*
X12655981Y47015400D01*
X12351430Y47320483D01*
X11657394Y47608672D01*
X10905903Y47609327D01*
X10211365Y47322350D01*
X9840144Y46951777D01*
X9664272Y46916794D01*
X9244014Y46635986D01*
X5434014Y42825986D01*
X5153206Y42405729D01*
X5134395Y42311158D01*
X4867983Y42139726D01*
X4664997Y41842647D01*
X4593584Y41490000D01*
X4593584Y39790000D01*
X4655573Y39460556D01*
X4850274Y39157983D01*
X5054600Y39018373D01*
X5054600Y38469511D01*
X4872854Y38348072D01*
X4420016Y37670352D01*
X4261000Y36870926D01*
X4261000Y36789074D01*
X4420016Y35989648D01*
X4872854Y35311928D01*
X5550574Y34859090D01*
X6350000Y34700074D01*
X6598520Y34749508D01*
X7594600Y33753428D01*
X7594600Y33020000D01*
X7693206Y32524271D01*
X7974014Y32104014D01*
X10514014Y29564014D01*
X10934272Y29283206D01*
X11127093Y29244852D01*
X11083584Y29030000D01*
X11083584Y27930000D01*
X11112674Y27775400D01*
X9970000Y27775400D01*
X9474272Y27676794D01*
X9054014Y27395986D01*
X7868520Y26210492D01*
X7620000Y26259926D01*
X6820574Y26100910D01*
X6375400Y25803454D01*
X6375400Y27120977D01*
X6763705Y27120638D01*
X7531778Y27437999D01*
X8119935Y28025132D01*
X8438637Y28792649D01*
X8439362Y29623705D01*
X8122001Y30391778D01*
X7534868Y30979935D01*
X6767351Y31298637D01*
X5936295Y31299362D01*
X5168222Y30982001D01*
X4580065Y30394868D01*
X4261363Y29627351D01*
X4260774Y28952746D01*
X4164014Y28855986D01*
X3883206Y28435729D01*
X3883206Y28435728D01*
X3784600Y27940000D01*
X3784600Y19050000D01*
X3883206Y18554271D01*
X4164014Y18134014D01*
X5531223Y16766805D01*
X5530638Y16096295D01*
X5847999Y15328222D01*
X6324600Y14850790D01*
X6324600Y12166416D01*
X5250000Y12166416D01*
X4920556Y12104427D01*
X4617983Y11909726D01*
X4414997Y11612647D01*
X4343584Y11260000D01*
X4343584Y9060000D01*
X4405573Y8730556D01*
X4600274Y8427983D01*
X4897353Y8224997D01*
X5250000Y8153584D01*
X6324600Y8153584D01*
X6324600Y3810000D01*
X6423206Y3314272D01*
X6704014Y2894014D01*
X7043764Y2667000D01*
X2667000Y2667000D01*
X2667000Y48420258D01*
X3157779Y47928621D01*
X4402929Y47411590D01*
X5751156Y47410413D01*
X6997206Y47925271D01*
X7951379Y48877779D01*
X8468410Y50122929D01*
X8469587Y51471156D01*
X7954729Y52717206D01*
X7002221Y53671379D01*
X5757071Y54188410D01*
X4408844Y54189587D01*
X3162794Y53674729D01*
X2667000Y53179800D01*
X2667000Y54483000D01*
X39243000Y54483000D01*
X39243000Y39946236D01*
X39243000Y39946236D01*
G37*
X39243000Y39946236D02*
X39015986Y40285986D01*
X38595728Y40566794D01*
X38100000Y40665400D01*
X37218577Y40665400D01*
X36855400Y41029210D01*
X36855400Y41560189D01*
X37042017Y41680274D01*
X37245003Y41977353D01*
X37316416Y42330000D01*
X37316416Y44030000D01*
X37254427Y44359444D01*
X37059726Y44662017D01*
X36976455Y44718914D01*
X37200696Y45054514D01*
X37333069Y45720000D01*
X37200696Y46385486D01*
X36823728Y46949659D01*
X36763353Y46990000D01*
X36823728Y47030341D01*
X37200696Y47594514D01*
X37333069Y48260000D01*
X37200696Y48925486D01*
X36823728Y49489659D01*
X36763353Y49530000D01*
X36823728Y49570341D01*
X37200696Y50134514D01*
X37333069Y50800000D01*
X37200696Y51465486D01*
X36823728Y52029659D01*
X36259555Y52406627D01*
X35594069Y52539000D01*
X35525931Y52539000D01*
X34860445Y52406627D01*
X34296272Y52029659D01*
X34264752Y51982486D01*
X30466070Y51635520D01*
X30281430Y51820483D01*
X29587394Y52108672D01*
X28835903Y52109327D01*
X28141365Y51822350D01*
X27833878Y51515400D01*
X24085981Y51515400D01*
X23781430Y51820483D01*
X23087394Y52108672D01*
X22335903Y52109327D01*
X21641365Y51822350D01*
X21333878Y51515400D01*
X19155981Y51515400D01*
X18851430Y51820483D01*
X18157394Y52108672D01*
X17405903Y52109327D01*
X16711365Y51822350D01*
X16403878Y51515400D01*
X12655981Y51515400D01*
X12351430Y51820483D01*
X11657394Y52108672D01*
X10905903Y52109327D01*
X10211365Y51822350D01*
X9679517Y51291430D01*
X9391328Y50597394D01*
X9390673Y49845903D01*
X9677650Y49151365D01*
X10208570Y48619517D01*
X10902606Y48331328D01*
X11654097Y48330673D01*
X12348635Y48617650D01*
X12656122Y48924600D01*
X16404019Y48924600D01*
X16708570Y48619517D01*
X17402606Y48331328D01*
X18154097Y48330673D01*
X18340383Y48407645D01*
X19024600Y47723428D01*
X19024600Y47147010D01*
X18851430Y47320483D01*
X18157394Y47608672D01*
X17405903Y47609327D01*
X16711365Y47322350D01*
X16403878Y47015400D01*
X12655981Y47015400D01*
X12351430Y47320483D01*
X11657394Y47608672D01*
X10905903Y47609327D01*
X10211365Y47322350D01*
X9840144Y46951777D01*
X9664272Y46916794D01*
X9244014Y46635986D01*
X5434014Y42825986D01*
X5153206Y42405729D01*
X5134395Y42311158D01*
X4867983Y42139726D01*
X4664997Y41842647D01*
X4593584Y41490000D01*
X4593584Y39790000D01*
X4655573Y39460556D01*
X4850274Y39157983D01*
X5054600Y39018373D01*
X5054600Y38469511D01*
X4872854Y38348072D01*
X4420016Y37670352D01*
X4261000Y36870926D01*
X4261000Y36789074D01*
X4420016Y35989648D01*
X4872854Y35311928D01*
X5550574Y34859090D01*
X6350000Y34700074D01*
X6598520Y34749508D01*
X7594600Y33753428D01*
X7594600Y33020000D01*
X7693206Y32524271D01*
X7974014Y32104014D01*
X10514014Y29564014D01*
X10934272Y29283206D01*
X11127093Y29244852D01*
X11083584Y29030000D01*
X11083584Y27930000D01*
X11112674Y27775400D01*
X9970000Y27775400D01*
X9474272Y27676794D01*
X9054014Y27395986D01*
X7868520Y26210492D01*
X7620000Y26259926D01*
X6820574Y26100910D01*
X6375400Y25803454D01*
X6375400Y27120977D01*
X6763705Y27120638D01*
X7531778Y27437999D01*
X8119935Y28025132D01*
X8438637Y28792649D01*
X8439362Y29623705D01*
X8122001Y30391778D01*
X7534868Y30979935D01*
X6767351Y31298637D01*
X5936295Y31299362D01*
X5168222Y30982001D01*
X4580065Y30394868D01*
X4261363Y29627351D01*
X4260774Y28952746D01*
X4164014Y28855986D01*
X3883206Y28435729D01*
X3883206Y28435728D01*
X3784600Y27940000D01*
X3784600Y19050000D01*
X3883206Y18554271D01*
X4164014Y18134014D01*
X5531223Y16766805D01*
X5530638Y16096295D01*
X5847999Y15328222D01*
X6324600Y14850790D01*
X6324600Y12166416D01*
X5250000Y12166416D01*
X4920556Y12104427D01*
X4617983Y11909726D01*
X4414997Y11612647D01*
X4343584Y11260000D01*
X4343584Y9060000D01*
X4405573Y8730556D01*
X4600274Y8427983D01*
X4897353Y8224997D01*
X5250000Y8153584D01*
X6324600Y8153584D01*
X6324600Y3810000D01*
X6423206Y3314272D01*
X6704014Y2894014D01*
X7043764Y2667000D01*
X2667000Y2667000D01*
X2667000Y48420258D01*
X3157779Y47928621D01*
X4402929Y47411590D01*
X5751156Y47410413D01*
X6997206Y47925271D01*
X7951379Y48877779D01*
X8468410Y50122929D01*
X8469587Y51471156D01*
X7954729Y52717206D01*
X7002221Y53671379D01*
X5757071Y54188410D01*
X4408844Y54189587D01*
X3162794Y53674729D01*
X2667000Y53179800D01*
X2667000Y54483000D01*
X39243000Y54483000D01*
X39243000Y39946236D01*
G36*
X11637353Y15094997D02*
X11990000Y15023584D01*
X14473584Y15023584D01*
X14473584Y13530000D01*
X14535573Y13200556D01*
X14730274Y12897983D01*
X15027353Y12694997D01*
X15380000Y12623584D01*
X16480000Y12623584D01*
X16809444Y12685573D01*
X16928769Y12762357D01*
X17027353Y12694997D01*
X17380000Y12623584D01*
X18480000Y12623584D01*
X18809444Y12685573D01*
X18928769Y12762357D01*
X19027353Y12694997D01*
X19380000Y12623584D01*
X20480000Y12623584D01*
X20809444Y12685573D01*
X20928769Y12762357D01*
X21027353Y12694997D01*
X21380000Y12623584D01*
X22480000Y12623584D01*
X22809444Y12685573D01*
X22928769Y12762357D01*
X23027353Y12694997D01*
X23380000Y12623584D01*
X24480000Y12623584D01*
X24809444Y12685573D01*
X24928769Y12762357D01*
X25027353Y12694997D01*
X25380000Y12623584D01*
X26031612Y12623584D01*
X24863428Y11455400D01*
X23248577Y11455400D01*
X22774868Y11929935D01*
X22007351Y12248637D01*
X21176295Y12249362D01*
X20408222Y11932001D01*
X19820065Y11344868D01*
X19501363Y10577351D01*
X19500638Y9746295D01*
X19697104Y9270810D01*
X19161359Y8199320D01*
X19149066Y8154430D01*
X19123206Y8115728D01*
X19092252Y7960113D01*
X18982647Y8035003D01*
X18630000Y8106416D01*
X17855556Y8106416D01*
X15965449Y9996523D01*
X15997967Y10160000D01*
X15846563Y10921157D01*
X15415402Y11566435D01*
X14770124Y11997596D01*
X14008967Y12149000D01*
X13931033Y12149000D01*
X13169876Y11997596D01*
X12524598Y11566435D01*
X12093437Y10921157D01*
X11942033Y10160000D01*
X12093437Y9398843D01*
X12524598Y8753565D01*
X13169876Y8322404D01*
X13931033Y8171000D01*
X14008967Y8171000D01*
X14107440Y8190588D01*
X16023584Y6274444D01*
X16023584Y5500000D01*
X16085573Y5170556D01*
X16127500Y5105400D01*
X8915400Y5105400D01*
X8915400Y14851423D01*
X9249158Y15184600D01*
X11506215Y15184600D01*
X11637353Y15094997D01*
X11637353Y15094997D01*
G37*
X11637353Y15094997D02*
X11990000Y15023584D01*
X14473584Y15023584D01*
X14473584Y13530000D01*
X14535573Y13200556D01*
X14730274Y12897983D01*
X15027353Y12694997D01*
X15380000Y12623584D01*
X16480000Y12623584D01*
X16809444Y12685573D01*
X16928769Y12762357D01*
X17027353Y12694997D01*
X17380000Y12623584D01*
X18480000Y12623584D01*
X18809444Y12685573D01*
X18928769Y12762357D01*
X19027353Y12694997D01*
X19380000Y12623584D01*
X20480000Y12623584D01*
X20809444Y12685573D01*
X20928769Y12762357D01*
X21027353Y12694997D01*
X21380000Y12623584D01*
X22480000Y12623584D01*
X22809444Y12685573D01*
X22928769Y12762357D01*
X23027353Y12694997D01*
X23380000Y12623584D01*
X24480000Y12623584D01*
X24809444Y12685573D01*
X24928769Y12762357D01*
X25027353Y12694997D01*
X25380000Y12623584D01*
X26031612Y12623584D01*
X24863428Y11455400D01*
X23248577Y11455400D01*
X22774868Y11929935D01*
X22007351Y12248637D01*
X21176295Y12249362D01*
X20408222Y11932001D01*
X19820065Y11344868D01*
X19501363Y10577351D01*
X19500638Y9746295D01*
X19697104Y9270810D01*
X19161359Y8199320D01*
X19149066Y8154430D01*
X19123206Y8115728D01*
X19092252Y7960113D01*
X18982647Y8035003D01*
X18630000Y8106416D01*
X17855556Y8106416D01*
X15965449Y9996523D01*
X15997967Y10160000D01*
X15846563Y10921157D01*
X15415402Y11566435D01*
X14770124Y11997596D01*
X14008967Y12149000D01*
X13931033Y12149000D01*
X13169876Y11997596D01*
X12524598Y11566435D01*
X12093437Y10921157D01*
X11942033Y10160000D01*
X12093437Y9398843D01*
X12524598Y8753565D01*
X13169876Y8322404D01*
X13931033Y8171000D01*
X14008967Y8171000D01*
X14107440Y8190588D01*
X16023584Y6274444D01*
X16023584Y5500000D01*
X16085573Y5170556D01*
X16127500Y5105400D01*
X8915400Y5105400D01*
X8915400Y14851423D01*
X9249158Y15184600D01*
X11506215Y15184600D01*
X11637353Y15094997D01*
G36*
X36804600Y5105400D02*
X36567965Y5105400D01*
X36804600Y5341623D01*
X36804600Y5105400D01*
X36804600Y5105400D01*
G37*
X36804600Y5105400D02*
X36567965Y5105400D01*
X36804600Y5341623D01*
X36804600Y5105400D01*
G36*
X36804600Y9897965D02*
X36212221Y10491379D01*
X34967071Y11008410D01*
X33618844Y11009587D01*
X32372794Y10494729D01*
X31418621Y9542221D01*
X30901590Y8297071D01*
X30900413Y6948844D01*
X31415271Y5702794D01*
X32011623Y5105400D01*
X21562440Y5105400D01*
X21926627Y5650445D01*
X22059000Y6315931D01*
X22059000Y6384069D01*
X21926627Y7049555D01*
X21672925Y7429247D01*
X21993625Y8070647D01*
X22003705Y8070638D01*
X22771778Y8387999D01*
X23249210Y8864600D01*
X25400000Y8864600D01*
X25895729Y8963206D01*
X26315986Y9244014D01*
X27105276Y10033304D01*
X27239090Y9360574D01*
X27691928Y8682854D01*
X28369648Y8230016D01*
X29169074Y8071000D01*
X29250926Y8071000D01*
X30050352Y8230016D01*
X30728072Y8682854D01*
X31180910Y9360574D01*
X31339926Y10160000D01*
X31290492Y10408520D01*
X32665986Y11784014D01*
X32703444Y11840074D01*
X32946794Y12204272D01*
X32974563Y12343877D01*
X33490574Y11999090D01*
X34290000Y11840074D01*
X35089426Y11999090D01*
X35767146Y12451928D01*
X36219984Y13129648D01*
X36379000Y13929074D01*
X36379000Y14010926D01*
X36219984Y14810352D01*
X35767146Y15488072D01*
X35585400Y15609511D01*
X35585400Y17780000D01*
X35486794Y18275728D01*
X35205986Y18695986D01*
X34401070Y19500902D01*
X34703705Y19500638D01*
X35471778Y19817999D01*
X36059935Y20405132D01*
X36378637Y21172649D01*
X36379226Y21847254D01*
X36475986Y21944014D01*
X36756794Y22364271D01*
X36804600Y22604610D01*
X36804600Y9897965D01*
X36804600Y9897965D01*
G37*
X36804600Y9897965D02*
X36212221Y10491379D01*
X34967071Y11008410D01*
X33618844Y11009587D01*
X32372794Y10494729D01*
X31418621Y9542221D01*
X30901590Y8297071D01*
X30900413Y6948844D01*
X31415271Y5702794D01*
X32011623Y5105400D01*
X21562440Y5105400D01*
X21926627Y5650445D01*
X22059000Y6315931D01*
X22059000Y6384069D01*
X21926627Y7049555D01*
X21672925Y7429247D01*
X21993625Y8070647D01*
X22003705Y8070638D01*
X22771778Y8387999D01*
X23249210Y8864600D01*
X25400000Y8864600D01*
X25895729Y8963206D01*
X26315986Y9244014D01*
X27105276Y10033304D01*
X27239090Y9360574D01*
X27691928Y8682854D01*
X28369648Y8230016D01*
X29169074Y8071000D01*
X29250926Y8071000D01*
X30050352Y8230016D01*
X30728072Y8682854D01*
X31180910Y9360574D01*
X31339926Y10160000D01*
X31290492Y10408520D01*
X32665986Y11784014D01*
X32703444Y11840074D01*
X32946794Y12204272D01*
X32974563Y12343877D01*
X33490574Y11999090D01*
X34290000Y11840074D01*
X35089426Y11999090D01*
X35767146Y12451928D01*
X36219984Y13129648D01*
X36379000Y13929074D01*
X36379000Y14010926D01*
X36219984Y14810352D01*
X35767146Y15488072D01*
X35585400Y15609511D01*
X35585400Y17780000D01*
X35486794Y18275728D01*
X35205986Y18695986D01*
X34401070Y19500902D01*
X34703705Y19500638D01*
X35471778Y19817999D01*
X36059935Y20405132D01*
X36378637Y21172649D01*
X36379226Y21847254D01*
X36475986Y21944014D01*
X36756794Y22364271D01*
X36804600Y22604610D01*
X36804600Y9897965D01*
G36*
X30454600Y13236572D02*
X29431174Y12213146D01*
X29250926Y12249000D01*
X29169074Y12249000D01*
X29144728Y12244157D01*
X29235400Y12700000D01*
X29235400Y15023584D01*
X29890000Y15023584D01*
X30219444Y15085573D01*
X30454600Y15236892D01*
X30454600Y13236572D01*
X30454600Y13236572D01*
G37*
X30454600Y13236572D02*
X29431174Y12213146D01*
X29250926Y12249000D01*
X29169074Y12249000D01*
X29144728Y12244157D01*
X29235400Y12700000D01*
X29235400Y15023584D01*
X29890000Y15023584D01*
X30219444Y15085573D01*
X30454600Y15236892D01*
X30454600Y13236572D01*
G36*
X15594014Y25754014D02*
X24411612Y16936416D01*
X23380000Y16936416D01*
X23050556Y16874427D01*
X22931231Y16797643D01*
X22832647Y16865003D01*
X22480000Y16936416D01*
X21380000Y16936416D01*
X21050556Y16874427D01*
X20931231Y16797643D01*
X20832647Y16865003D01*
X20480000Y16936416D01*
X19380000Y16936416D01*
X19050556Y16874427D01*
X18931231Y16797643D01*
X18832647Y16865003D01*
X18480000Y16936416D01*
X17380000Y16936416D01*
X17050556Y16874427D01*
X16931231Y16797643D01*
X16832647Y16865003D01*
X16480000Y16936416D01*
X15396416Y16936416D01*
X15396416Y17030000D01*
X15334427Y17359444D01*
X15257643Y17478769D01*
X15325003Y17577353D01*
X15396416Y17930000D01*
X15396416Y19030000D01*
X15334427Y19359444D01*
X15257643Y19478769D01*
X15325003Y19577353D01*
X15396416Y19930000D01*
X15396416Y21030000D01*
X15334427Y21359444D01*
X15257643Y21478769D01*
X15325003Y21577353D01*
X15396416Y21930000D01*
X15396416Y23030000D01*
X15334427Y23359444D01*
X15257643Y23478769D01*
X15325003Y23577353D01*
X15396416Y23930000D01*
X15396416Y25030000D01*
X15334427Y25359444D01*
X15257643Y25478769D01*
X15325003Y25577353D01*
X15396416Y25930000D01*
X15396416Y26049739D01*
X15594014Y25754014D01*
X15594014Y25754014D01*
G37*
X15594014Y25754014D02*
X24411612Y16936416D01*
X23380000Y16936416D01*
X23050556Y16874427D01*
X22931231Y16797643D01*
X22832647Y16865003D01*
X22480000Y16936416D01*
X21380000Y16936416D01*
X21050556Y16874427D01*
X20931231Y16797643D01*
X20832647Y16865003D01*
X20480000Y16936416D01*
X19380000Y16936416D01*
X19050556Y16874427D01*
X18931231Y16797643D01*
X18832647Y16865003D01*
X18480000Y16936416D01*
X17380000Y16936416D01*
X17050556Y16874427D01*
X16931231Y16797643D01*
X16832647Y16865003D01*
X16480000Y16936416D01*
X15396416Y16936416D01*
X15396416Y17030000D01*
X15334427Y17359444D01*
X15257643Y17478769D01*
X15325003Y17577353D01*
X15396416Y17930000D01*
X15396416Y19030000D01*
X15334427Y19359444D01*
X15257643Y19478769D01*
X15325003Y19577353D01*
X15396416Y19930000D01*
X15396416Y21030000D01*
X15334427Y21359444D01*
X15257643Y21478769D01*
X15325003Y21577353D01*
X15396416Y21930000D01*
X15396416Y23030000D01*
X15334427Y23359444D01*
X15257643Y23478769D01*
X15325003Y23577353D01*
X15396416Y23930000D01*
X15396416Y25030000D01*
X15334427Y25359444D01*
X15257643Y25478769D01*
X15325003Y25577353D01*
X15396416Y25930000D01*
X15396416Y26049739D01*
X15594014Y25754014D01*
G36*
X11083584Y25030000D02*
X11083584Y23930000D01*
X11145573Y23600556D01*
X11222357Y23481231D01*
X11154997Y23382647D01*
X11083584Y23030000D01*
X11083584Y21930000D01*
X11145573Y21600556D01*
X11222357Y21481231D01*
X11154997Y21382647D01*
X11083584Y21030000D01*
X11083584Y19930000D01*
X11145573Y19600556D01*
X11222357Y19481231D01*
X11154997Y19382647D01*
X11083584Y19030000D01*
X11083584Y17930000D01*
X11112674Y17775400D01*
X9308525Y17775400D01*
X8804868Y18279935D01*
X8037351Y18598637D01*
X7362746Y18599226D01*
X6375400Y19586572D01*
X6375400Y22456546D01*
X6820574Y22159090D01*
X7620000Y22000074D01*
X8419426Y22159090D01*
X9097146Y22611928D01*
X9549984Y23289648D01*
X9709000Y24089074D01*
X9709000Y24170926D01*
X9673146Y24351174D01*
X10506572Y25184600D01*
X11114891Y25184600D01*
X11083584Y25030000D01*
X11083584Y25030000D01*
G37*
X11083584Y25030000D02*
X11083584Y23930000D01*
X11145573Y23600556D01*
X11222357Y23481231D01*
X11154997Y23382647D01*
X11083584Y23030000D01*
X11083584Y21930000D01*
X11145573Y21600556D01*
X11222357Y21481231D01*
X11154997Y21382647D01*
X11083584Y21030000D01*
X11083584Y19930000D01*
X11145573Y19600556D01*
X11222357Y19481231D01*
X11154997Y19382647D01*
X11083584Y19030000D01*
X11083584Y17930000D01*
X11112674Y17775400D01*
X9308525Y17775400D01*
X8804868Y18279935D01*
X8037351Y18598637D01*
X7362746Y18599226D01*
X6375400Y19586572D01*
X6375400Y22456546D01*
X6820574Y22159090D01*
X7620000Y22000074D01*
X8419426Y22159090D01*
X9097146Y22611928D01*
X9549984Y23289648D01*
X9709000Y24089074D01*
X9709000Y24170926D01*
X9673146Y24351174D01*
X10506572Y25184600D01*
X11114891Y25184600D01*
X11083584Y25030000D01*
G36*
X24484014Y31395986D02*
X24203206Y30975729D01*
X24110567Y30510000D01*
X24104600Y30480000D01*
X24104600Y24130000D01*
X24203206Y23634271D01*
X24484014Y23214014D01*
X26134014Y21564014D01*
X26537173Y21294630D01*
X26483584Y21030000D01*
X26483584Y19930000D01*
X26545573Y19600556D01*
X26622357Y19481231D01*
X26554997Y19382647D01*
X26483584Y19030000D01*
X26483584Y18528388D01*
X17805400Y27206572D01*
X17805400Y30480000D01*
X17799433Y30510000D01*
X17706794Y30975729D01*
X17425986Y31395986D01*
X16155986Y32665986D01*
X16049345Y32737242D01*
X15958559Y32827838D01*
X15213116Y33324800D01*
X26412828Y33324800D01*
X24484014Y31395986D01*
X24484014Y31395986D01*
G37*
X24484014Y31395986D02*
X24203206Y30975729D01*
X24110567Y30510000D01*
X24104600Y30480000D01*
X24104600Y24130000D01*
X24203206Y23634271D01*
X24484014Y23214014D01*
X26134014Y21564014D01*
X26537173Y21294630D01*
X26483584Y21030000D01*
X26483584Y19930000D01*
X26545573Y19600556D01*
X26622357Y19481231D01*
X26554997Y19382647D01*
X26483584Y19030000D01*
X26483584Y18528388D01*
X17805400Y27206572D01*
X17805400Y30480000D01*
X17799433Y30510000D01*
X17706794Y30975729D01*
X17425986Y31395986D01*
X16155986Y32665986D01*
X16049345Y32737242D01*
X15958559Y32827838D01*
X15213116Y33324800D01*
X26412828Y33324800D01*
X24484014Y31395986D01*
G36*
X33803584Y27090000D02*
X33865573Y26760556D01*
X34060274Y26457983D01*
X34143545Y26401086D01*
X33919304Y26065486D01*
X33786931Y25400000D01*
X33919304Y24734514D01*
X34264600Y24217742D01*
X34264600Y23679023D01*
X33876295Y23679362D01*
X33108222Y23362001D01*
X33045400Y23299288D01*
X33045400Y27403428D01*
X33803584Y28161612D01*
X33803584Y27090000D01*
X33803584Y27090000D01*
G37*
X33803584Y27090000D02*
X33865573Y26760556D01*
X34060274Y26457983D01*
X34143545Y26401086D01*
X33919304Y26065486D01*
X33786931Y25400000D01*
X33919304Y24734514D01*
X34264600Y24217742D01*
X34264600Y23679023D01*
X33876295Y23679362D01*
X33108222Y23362001D01*
X33045400Y23299288D01*
X33045400Y27403428D01*
X33803584Y28161612D01*
X33803584Y27090000D01*
G36*
X36804600Y29596338D02*
X36762647Y29625003D01*
X36410000Y29696416D01*
X35943796Y29696416D01*
X36359426Y29779090D01*
X36804600Y30076546D01*
X36804600Y29596338D01*
X36804600Y29596338D01*
G37*
X36804600Y29596338D02*
X36762647Y29625003D01*
X36410000Y29696416D01*
X35943796Y29696416D01*
X36359426Y29779090D01*
X36804600Y30076546D01*
X36804600Y29596338D01*
G36*
X10208446Y33918750D02*
X10233206Y33794272D01*
X10304463Y33687628D01*
X10353668Y33569188D01*
X10443504Y33479540D01*
X10514014Y33374014D01*
X10620654Y33302759D01*
X10711441Y33212162D01*
X12625060Y31936416D01*
X11990000Y31936416D01*
X11834765Y31907207D01*
X10185400Y33556572D01*
X10185400Y33974224D01*
X10208446Y33918750D01*
X10208446Y33918750D01*
G37*
X10208446Y33918750D02*
X10233206Y33794272D01*
X10304463Y33687628D01*
X10353668Y33569188D01*
X10443504Y33479540D01*
X10514014Y33374014D01*
X10620654Y33302759D01*
X10711441Y33212162D01*
X12625060Y31936416D01*
X11990000Y31936416D01*
X11834765Y31907207D01*
X10185400Y33556572D01*
X10185400Y33974224D01*
X10208446Y33918750D01*
G36*
X36804600Y33423454D02*
X36359426Y33720910D01*
X35560000Y33879926D01*
X34760574Y33720910D01*
X34315400Y33423454D01*
X34315400Y37659901D01*
X34375132Y37600065D01*
X35142649Y37281363D01*
X35973705Y37280638D01*
X36741778Y37597999D01*
X36804600Y37660712D01*
X36804600Y33423454D01*
X36804600Y33423454D01*
G37*
X36804600Y33423454D02*
X36359426Y33720910D01*
X35560000Y33879926D01*
X34760574Y33720910D01*
X34315400Y33423454D01*
X34315400Y37659901D01*
X34375132Y37600065D01*
X35142649Y37281363D01*
X35973705Y37280638D01*
X36741778Y37597999D01*
X36804600Y37660712D01*
X36804600Y33423454D01*
G36*
X10134600Y34545390D02*
X10086794Y34785728D01*
X9805986Y35205986D01*
X8403146Y36608826D01*
X8439000Y36789074D01*
X8439000Y36870926D01*
X8279984Y37670352D01*
X7827146Y38348072D01*
X7645400Y38469511D01*
X7645400Y39020189D01*
X7832017Y39140274D01*
X7888914Y39223545D01*
X8224514Y38999304D01*
X8890000Y38866931D01*
X9555486Y38999304D01*
X10072258Y39344600D01*
X10134600Y39344600D01*
X10134600Y34545390D01*
X10134600Y34545390D01*
G37*
X10134600Y34545390D02*
X10086794Y34785728D01*
X9805986Y35205986D01*
X8403146Y36608826D01*
X8439000Y36789074D01*
X8439000Y36870926D01*
X8279984Y37670352D01*
X7827146Y38348072D01*
X7645400Y38469511D01*
X7645400Y39020189D01*
X7832017Y39140274D01*
X7888914Y39223545D01*
X8224514Y38999304D01*
X8890000Y38866931D01*
X9555486Y38999304D01*
X10072258Y39344600D01*
X10134600Y39344600D01*
X10134600Y34545390D01*
G36*
X27914600Y44343878D02*
X27914600Y39065200D01*
X12725400Y39065200D01*
X12725400Y40614600D01*
X17780000Y40614600D01*
X18275729Y40713206D01*
X18695986Y40994014D01*
X21235986Y43534014D01*
X21330676Y43675728D01*
X21516794Y43954272D01*
X21564435Y44193781D01*
X21638570Y44119517D01*
X22332606Y43831328D01*
X23084097Y43830673D01*
X23778635Y44117650D01*
X24086122Y44424600D01*
X27834019Y44424600D01*
X27914600Y44343878D01*
X27914600Y44343878D01*
G37*
X27914600Y44343878D02*
X27914600Y39065200D01*
X12725400Y39065200D01*
X12725400Y40614600D01*
X17780000Y40614600D01*
X18275729Y40713206D01*
X18695986Y40994014D01*
X21235986Y43534014D01*
X21330676Y43675728D01*
X21516794Y43954272D01*
X21564435Y44193781D01*
X21638570Y44119517D01*
X22332606Y43831328D01*
X23084097Y43830673D01*
X23778635Y44117650D01*
X24086122Y44424600D01*
X27834019Y44424600D01*
X27914600Y44343878D01*
G36*
X16708570Y44119517D02*
X17402606Y43831328D01*
X17868950Y43830922D01*
X17243428Y43205400D01*
X11430000Y43205400D01*
X11384349Y43196320D01*
X11338170Y43202141D01*
X11137915Y43147301D01*
X10934272Y43106794D01*
X10895571Y43080935D01*
X10850679Y43068641D01*
X9354676Y42320639D01*
X8890000Y42413069D01*
X8634149Y42362177D01*
X10337820Y44065848D01*
X10902606Y43831328D01*
X11654097Y43830673D01*
X12348635Y44117650D01*
X12656122Y44424600D01*
X16404019Y44424600D01*
X16708570Y44119517D01*
X16708570Y44119517D01*
G37*
X16708570Y44119517D02*
X17402606Y43831328D01*
X17868950Y43830922D01*
X17243428Y43205400D01*
X11430000Y43205400D01*
X11384349Y43196320D01*
X11338170Y43202141D01*
X11137915Y43147301D01*
X10934272Y43106794D01*
X10895571Y43080935D01*
X10850679Y43068641D01*
X9354676Y42320639D01*
X8890000Y42413069D01*
X8634149Y42362177D01*
X10337820Y44065848D01*
X10902606Y43831328D01*
X11654097Y43830673D01*
X12348635Y44117650D01*
X12656122Y44424600D01*
X16404019Y44424600D01*
X16708570Y44119517D01*
G36*
X33911014Y46343808D02*
X33045400Y45911001D01*
X33045400Y46056329D01*
X33911239Y46344942D01*
X33911014Y46343808D01*
X33911014Y46343808D01*
G37*
X33911014Y46343808D02*
X33045400Y45911001D01*
X33045400Y46056329D01*
X33911239Y46344942D01*
X33911014Y46343808D01*
G36*
X34050904Y49122439D02*
X31340359Y48218924D01*
X31299925Y48195875D01*
X31254272Y48186794D01*
X31081634Y48071441D01*
X30901252Y47968616D01*
X30872713Y47931844D01*
X30834014Y47905986D01*
X30718660Y47733347D01*
X30591359Y47569320D01*
X30579066Y47524430D01*
X30553206Y47485728D01*
X30512698Y47282081D01*
X30471165Y47130417D01*
X30281430Y47320483D01*
X29587394Y47608672D01*
X28835903Y47609327D01*
X28141365Y47322350D01*
X27833878Y47015400D01*
X24085981Y47015400D01*
X23781430Y47320483D01*
X23087394Y47608672D01*
X22335903Y47609327D01*
X21641365Y47322350D01*
X21615400Y47296430D01*
X21615400Y47310213D01*
X21665986Y47344014D01*
X22653021Y48331049D01*
X23084097Y48330673D01*
X23778635Y48617650D01*
X24086122Y48924600D01*
X27834019Y48924600D01*
X28138570Y48619517D01*
X28832606Y48331328D01*
X29584097Y48330673D01*
X30278635Y48617650D01*
X30718769Y49057016D01*
X34220928Y49376899D01*
X34050904Y49122439D01*
X34050904Y49122439D01*
G37*
X34050904Y49122439D02*
X31340359Y48218924D01*
X31299925Y48195875D01*
X31254272Y48186794D01*
X31081634Y48071441D01*
X30901252Y47968616D01*
X30872713Y47931844D01*
X30834014Y47905986D01*
X30718660Y47733347D01*
X30591359Y47569320D01*
X30579066Y47524430D01*
X30553206Y47485728D01*
X30512698Y47282081D01*
X30471165Y47130417D01*
X30281430Y47320483D01*
X29587394Y47608672D01*
X28835903Y47609327D01*
X28141365Y47322350D01*
X27833878Y47015400D01*
X24085981Y47015400D01*
X23781430Y47320483D01*
X23087394Y47608672D01*
X22335903Y47609327D01*
X21641365Y47322350D01*
X21615400Y47296430D01*
X21615400Y47310213D01*
X21665986Y47344014D01*
X22653021Y48331049D01*
X23084097Y48330673D01*
X23778635Y48617650D01*
X24086122Y48924600D01*
X27834019Y48924600D01*
X28138570Y48619517D01*
X28832606Y48331328D01*
X29584097Y48330673D01*
X30278635Y48617650D01*
X30718769Y49057016D01*
X34220928Y49376899D01*
X34050904Y49122439D01*
M02*
